<?xml version="1.0" standalone="no"?>
<!DOCTYPE svg PUBLIC "-//W3C//DTD SVG 1.1//EN" "http://www.w3.org/Graphics/SVG/1.1/DTD/svg11.dtd" >
<svg xmlns="http://www.w3.org/2000/svg">
<metadata>
Created by FontForge 20120731 at Fri Sep  2 02:00:38 2016
 By admin
</metadata>
<defs>
<font id="iconfont" horiz-adv-x="1024" >
  <font-face 
    font-family="iconfont"
    font-weight="500"
    font-stretch="normal"
    units-per-em="1024"
    panose-1="2 0 6 3 0 0 0 0 0 0"
    ascent="896"
    descent="-128"
    x-height="792"
    bbox="0 -220 1279.8 896"
    underline-thickness="50"
    underline-position="-100"
    unicode-range="U+0078-E624"
  />
<missing-glyph horiz-adv-x="374" 
d="M34 0v682h272v-682h-272zM68 34h204v614h-204v-614z" />
    <glyph glyph-name=".notdef" horiz-adv-x="374" 
d="M34 0v682h272v-682h-272zM68 34h204v614h-204v-614z" />
    <glyph glyph-name=".null" horiz-adv-x="0" 
 />
    <glyph glyph-name="nonmarkingreturn" horiz-adv-x="341" 
 />
    <glyph glyph-name="x" unicode="x" horiz-adv-x="1001" 
d="M281 543q-27 -1 -53 -1h-83q-18 0 -36.5 -6t-32.5 -18.5t-23 -32t-9 -45.5v-76h912v41q0 16 -0.5 30t-0.5 18q0 13 -5 29t-17 29.5t-31.5 22.5t-49.5 9h-133v-97h-438v97zM955 310v-52q0 -23 0.5 -52t0.5 -58t-10.5 -47.5t-26 -30t-33 -16t-31.5 -4.5q-14 -1 -29.5 -0.5
t-29.5 0.5h-32l-45 128h-439l-44 -128h-29h-34q-20 0 -45 1q-25 0 -41 9.5t-25.5 23t-13.5 29.5t-4 30v167h911zM163 247q-12 0 -21 -8.5t-9 -21.5t9 -21.5t21 -8.5q13 0 22 8.5t9 21.5t-9 21.5t-22 8.5zM316 123q-8 -26 -14 -48q-5 -19 -10.5 -37t-7.5 -25t-3 -15t1 -14.5
t9.5 -10.5t21.5 -4h37h67h81h80h64h36q23 0 34 12t2 38q-5 13 -9.5 30.5t-9.5 34.5q-5 19 -11 39h-368zM336 498v228q0 11 2.5 23t10 21.5t20.5 15.5t34 6h188q31 0 51.5 -14.5t20.5 -52.5v-227h-327z" />
    <glyph glyph-name="uniE600" unicode="&#xe600;" 
d="M604 402q136 -94 65 -97h-22q-12 0 -20.5 5.5t-13 13t-6.5 22t-2.5 24t-0.5 27.5v5zM409 608l-3 3q-3 3 -4 2l-26 17q-1 0 -2.5 1t-2.5 1.5t-2 1.5l-36 7v-24q0 -14 0.5 -16t3.5 -2q12 0 28 -23l-21 -87q-14 9 -47 48t-43 57q-3 5 -8.5 16.5t-8 14.5t-11.5 11.5t-20 13
t-31 11t-48 12.5q4 -15 20 -34.5t39 -43.5t48 -54t51.5 -78.5t44.5 -106.5q3 -8 5.5 -17.5t4 -13t2.5 -7t3.5 -7t4 -5.5t7 -9t10.5 -13q33 -44 49.5 -66.5t27 -40t9.5 -25.5t-4 -16.5t-11.5 -19.5t-16 -27t-14.5 -47.5t-9 -73.5q-1 -16 -3.5 -29.5t-6.5 -21t-7 -13.5
t-6.5 -8t-4 -4.5t0 -2.5t6.5 -2t13.5 -3.5t23 -6.5t33.5 -11l16 -6q4 -2 3 -3q-1 0 2 -2q4 -2 17 -6q-2 22 -7.5 33t-11.5 14.5t-11.5 7t-9.5 16t-4 37.5q0 8 11.5 27.5t26.5 43t20 34.5q5 13 10 25t7.5 19.5t6 22t5 19t6 24t5.5 24.5q17 -10 20 -30.5t-4.5 -49t-18 -59.5
t-20 -71t-10.5 -72q36 8 80 7.5t61 3.5q-15 13 -28 20t-30 12.5t-28 10.5q5 19 29 61t31 63q24 62 27 94l2 1q11 -20 52 -24q7 11 15 21t14 19.5t14 25.5q36 0 58.5 1.5t40.5 7t27.5 13.5t16 24t8 35t1.5 49q-9 2 -23.5 8.5t-24.5 8.5t-23.5 1t-28 -13.5t-30.5 -37.5
l-146 104q-21 14 -33.5 25.5t-21 19.5t-14 23t-7.5 23t-7.5 34t-9.5 43q15 3 18 4t9.5 7t9 11t14 24t25.5 40q-25 38 -48.5 54t-39 13t-29.5 -17.5t-21.5 -30.5t-14.5 -33.5t-8 -19.5q-6 -8 -17 -20t-17 -22z" />
    <glyph glyph-name="uniE601" unicode="&#xe601;" 
d="M977 58q4 -59 -21 -71.5t-61 21.5q-4 3 -16.5 14.5t-19 16.5t-19 16t-20.5 17t-20 14.5t-20.5 13t-19 9.5t-19.5 7t-17 2q-41 -1 -86.5 -30t-64.5 -74q-8 -22 -25.5 -48t-47.5 -56.5t-66 -54t-84.5 -36.5t-100.5 -7q-41 15 -57.5 27.5t-12 27.5t21.5 30.5t44 40.5t54 53
t53.5 73t40.5 96q1 2 6 14q-23 55 -57 76t-85 11q-33 -6 -57.5 -33.5t-34.5 -54.5t-9 -44q2 -39 -9 -50.5t-31 0t-46 40.5q-27 29 -31.5 76t20.5 101.5t78 91.5q148 70 251 -35q26 -26 46 -67q20 92 24 289q3 142 20 179q24 49 89 9q45 -32 72 -87.5t35 -123t5 -136
t-16 -141.5q-1 -4 -91.5 -42t-91.5 -41q0 -3 36.5 5.5t79.5 20.5t58 18q2 0 13 5t17 7.5t19.5 7t23.5 6.5t25 3.5t28 1t29 -3.5t32 -9q62 -22 97 -76.5t39 -119.5z" />
    <glyph glyph-name="uniE602" unicode="&#xe602;" 
d="M853 140q8 0 13 -5t5 -12.5t-5 -12t-13 -4.5h-76v-47q0 -7 -5 -11t-12.5 -4t-12.5 4t-5 11v47h-60q-8 0 -13.5 4.5t-5.5 12t5.5 12.5t13.5 5h60v34h-60q-8 0 -13.5 5t-5.5 12t5.5 12.5t13.5 5.5h49l-55 59q-9 10 4.5 22t22.5 2l57 -62l55 62q9 10 22.5 -2t4.5 -22
l-55 -59h65q8 0 13.5 -5.5t5.5 -12.5t-5.5 -12t-13.5 -5h-75v-34h76zM760.5 405q-94.5 0 -161 -65t-66.5 -156.5t66.5 -156.5t161 -65t161 65t66.5 156.5t-66.5 156.5t-161 65zM467 178q0 102 66 180.5t166 100.5q18 43 18 91q0 98 -71.5 168t-172.5 70t-172 -70t-71 -168
q0 -71 39 -129.5t104 -86.5q-134 -33 -227 -135t-111 -236h531q-46 40 -72.5 96t-26.5 119z" />
    <glyph glyph-name="uniE603" unicode="&#xe603;" 
d="M874 796h-724q-60 0 -103 -43t-43 -103v-724q0 -60 43 -103t103 -43h724q60 0 103 43t43 103v724q0 60 -43 103t-103 43zM223 -61l-68 30q27 36 42.5 64t29.5 69l59 -19q-27 -77 -63 -144zM350 217q0 -36 -20.5 -51t-90.5 -27q-5 41 -27 70q49 -4 64.5 3t15.5 24v70
q-65 -17 -109 -34q-6 38 -18 69q75 11 127 22v101q-73 0 -120 -7v62q59 -5 120 -5q0 85 -7 121q39 -6 68 -6q23 0 7 -13q-3 -3 -6.5 -13t-3.5 -18v-70q36 1 73 4v-62q-39 5 -73 6v-87q32 8 76 20q-5 -32 -1 -60q-74 -16 -75 -17v-102zM375 -50q2 73 -11 130l62 7
q18 -75 26 -134zM560 -48q-5 71 -25 135l65 7q18 -61 35 -135zM770 -53q-28 81 -73 149l61 26q40 -62 83 -142zM755 158q-27 18 -40.5 45t-19.5 71q-9 69 1 190l-80 -4q-7 -75 -29 -136q29 -22 80 -63l-47 -49q-25 28 -57 57q-40 -74 -115 -136q-28 24 -65 37q95 51 137 137
q-40 30 -61 44l37 41q19 -13 44 -32q12 42 17 98q-62 -5 -92 -11l-7 64q41 -2 101 0q1 96 -2 126q32 -7 74 -9q21 -2 4 -18q-5 -5 -15 -96q96 5 148 12q-15 -94 -18 -148t5 -111q5 -27 20 -48q14 -19 28 28q4 14 9 36q10 -14 26 -25t31 -12q-39 -140 -114 -88z" />
    <glyph glyph-name="uniE604" unicode="&#xe604;" 
d="M873 534.5q-18 38.5 -25.5 57.5t-15 47t-4.5 51.5t15 49.5q4 9 0.5 19t-13 14.5t-19.5 1t-15 -13.5q-15 -33 -19 -64t4.5 -65t17.5 -56t28 -63q17 -37 26 -57.5t24 -63.5t21.5 -77t12 -88t2.5 -106.5t-14 -122t-31 -144.5q-2 -10 3 -19.5t16 -12.5h6q20 0 25 19
q21 79 32 152t14.5 128t-2.5 111.5t-13 92.5t-23 81.5t-25.5 67.5t-27.5 60.5zM206.5 745q-8.5 -6 -10.5 -16.5t4 -19.5q19 -25 27 -47t10.5 -37.5t-5.5 -36.5t-15.5 -34t-26.5 -41q-20 -32 -31.5 -50.5t-30.5 -59t-28 -75t-18 -90.5t-8 -114t10.5 -137t30.5 -167
q2 -9 9 -14.5t16 -5.5q3 0 6 1q10 2 15.5 11t3.5 19q-20 84 -29 159t-10.5 129.5t7 107.5t17 85.5t26 70.5t28 55.5t29.5 46.5q17 26 24.5 39t18 35.5t12 39.5t-0.5 40t-13.5 47.5t-31.5 52.5q-6 9 -16.5 10.5t-19 -4.5zM714.5 362q-10.5 3 -19.5 -1.5t-13 -14.5
q-16 -50 -52.5 -121t-78.5 -136q-44 99 -138 245q-5 9 -15.5 11.5t-19.5 -3.5t-11 -16t3 -19q54 -85 86.5 -143t60.5 -126q6 -78 6 -192v-12q0 -11 7.5 -18.5t18 -7.5t18 7.5t7.5 18.5v12q0 107 -5 180q50 70 96 156.5t66 147.5q3 10 -1.5 19.5t-15 12.5z" />
    <glyph glyph-name="uniE605" unicode="&#xe605;" 
d="M347 521q-57 -94 -73 -213q-9 -61 -1 -113q11 -81 65 -150q30 -38 15 -85.5t-62 -62.5q-38 -13 -82 -1q-16 4 -45 12.5t-41 11.5q-6 2 -8 -2q-2 -3 -13 -25l5 -3q63 -30 126 -36q55 -4 93 17q54 30 65 100q1 2 4 29l3 -1q92 -45 195 -11q107 36 188 128q2 3 42 53
l-469 362q-6 -10 -7 -10zM765 157q-35 -37 -37 -40q-75 -74 -166 -98q-96 -25 -171 30q-46 35 -70 108q-9 27 -12 55q-7 59 9 128q1 6 2 10q7 26 20 65q3 7 10 26t11 30q214 -165 404 -314zM903 599q-42 115 -156 146q-66 18 -152 -9q-67 -21 -133 -80q-44 -38 -76 -79l1 -1
l1 -1h1l1 -1l1 -1l1 -1h1l1 -1l1 -1l1 -1l1 -1h1l1 -1l1 -1l1 -1h1l1 -1l1 -1l1 -1h1l1 -1l1 -1l1 -1l1 -1h1l1 -1l1 -1l1 -1h1l1 -1l1 -1l1 -1h1l1 -1l1 -1l1 -1l1 -1h1l1 -1l1 -1l1 -1h1l1 -1l1 -1l1 -1h1l1 -1l1 -1l1 -1l1 -1h1l1 -1l1 -1l1 -1h1l1 -1l1 -1l1 -1h1l1 -1
l1 -1l1 -1l1 -1h1l1 -1l1 -1l1 -1h1l1 -1l1 -1l1 -1h1l1 -1l1 -1l1 -1l1 -1h1l1 -1l1 -1l1 -1h1l1 -1l1 -1l1 -1h1l1 -1l1 -1l1 -1l1 -1h1l1 -1l1 -1l1 -1h1l1 -1l1 -1l1 -1h1l1 -1l1 -1l1 -1l1 -1h1l1 -1l1 -1l1 -1h1l1 -1l1 -1l1 -1h1l1 -1l1 -1l1 -1l1 -1h1l1 -1l1 -1
l1 -1h1l1 -1l1 -1l1 -1h1l1 -1l1 -1l1 -1l1 -1h1l1 -1l1 -1l1 -1h1l1 -1l1 -1l1 -1h1l1 -1l1 -1l1 -1l1 -1h1l1 -1l1 -1l1 -1h1l1 -1l1 -1l1 -1h1l1 -1l1 -1l1 -1l1 -1h1l1 -1l1 -1l1 -1h1l1 -1l1 -1l1 -1h1l1 -1l1 -1l1 -1l1 -1h1l1 -1l1 -1l1 -1h1l1 -1l1 -1l1 -1h1l1 -1
l1 -1l1 -1l1 -1h1l1 -1l1 -1l1 -1h1l1 -1l1 -1l1 -1h1l1 -1l1 -1l1 -1l1 -1h1l1 -1l1 -1l1 -1h1l1 -1l1 -1l1 -1h1l1 -1l1 -1l1 -1l1 -1h1l1 -1l1 -1l1 -1h1l1 -1l1 -1l1 -1h1l1 -1l1 -1l1 -1l1 -1h1l1 -1l1 -1l1 -1h1l1 -1l1 -1l1 -1h1l1 -1l1 -1l1 -1l1 -1h1l1 -1l1 -1
l1 -1h1l1 -1l1 -1l1 -1h1l1 -1l1 -1l1 -1l1 -1h1l1 -1l1 -1l1 -1h1l1 -1l1 -1l1 -1h1l1 -1l1 -1l1 -1l1 -1h1l1 -1l1 -1l1 -1h1l1 -1l1 -1l1 -1h1l1 -1l1 -1l1 -1l1 -1h1l1 -1l1 -1l1 -1h1l1 -1l1 -1l1 -1h1l1 -1l1 -1l1 -1l1 -1h1l1 -1l1 -1l1 -1h1l1 -1l1 -1l1 -1h1l1 -1
l1 -1l1 -1l1 -1h1l1 -1l1 -1l1 -1h1l1 -1l1 -1l1 -1h1l1 -1l1 -1l1 -1l1 -1h1l1 -1l1 -1l1 -1h1l1 -1l1 -1l1 -1h1l1 -1l1 -1l1 -1l1 -1h1l1 -1l1 -1l1 -1h1l1 -1l1 -1l1 -1h1l1 -1l1 -1l1 -1l1 -1h1l1 -1l1 -1l1 -1h1l1 -1l1 -1l1 -1h1l1 -1l1 -1l1 -1l1 -1h1l1 -1l1 -1
l1 -1h1l1 -1l1 -1l1 -1h1l1 -1l1 -1l1 -1l1 -1h1l1 -1l1 -1l1 -1h1l1 -1l1 -1l1 -1h1l1 -1l1 -1l1 -1l1 -1h1l1 -1l1 -1l1 -1h1l1 -1l1 -1l1 -1h1l1 -1l1 -1l1 -1l1 -1l1 -1l1 -1l1 -1h1l1 -1l1 -1l1 -1h1l1 -1l1 -1l1 -1l1 -1h1l1 -1l1 -1l1 -1h1l1 -1l1 -1l1 -1h1l1 -1
l1 -1l1 -1l1 -1h1l1 -1l1 -1l1 -1h1l1 -1l1 -1l1 -1l1 -1h1l1 -1l1 -1l1 -1h1l1 -1l1 -1l1 -1h1l1 -1l1 -1l1 -1l1 -1h1l1 -1l1 -1l1 -1h1l1 -1l1 -1l1 -1h1l1 -1l1 -1l1 -1l1 -1h1l1 -1l1 -1l1 -1h1l1 -1l1 -1l1 -1h1l1 -1l1 -1l1 -1l1 -1h1l1 -1l1 -1l1 -1h2q19 35 19 36
q45 91 51 195q5 83 -20 150zM870 366q-2 -8 -25 -75l-4 -8l-1 1h-1l-1 1l-1 1l-1 1h-1l-1 1l-1 1l-1 1l-1 1h-1l-1 1l-1 1l-1 1h-1l-1 1l-1 1l-1 1h-1l-1 1l-1 1l-1 1l-1 1h-1l-1 1l-1 1l-1 1h-1l-1 1l-1 1l-1 1h-1l-1 1l-1 1l-1 1h-1l-1 1l-1 1l-1 1l-1 1h-1l-1 1l-1 1
l-1 1h-1l-1 1l-1 1l-1 1h-1l-1 1l-1 1l-1 1l-1 1h-1l-1 1l-1 1l-1 1h-1l-1 1l-1 1l-1 1h-1l-1 1l-1 1l-1 1h-1l-1 1l-1 1l-1 1l-1 1h-1l-1 1l-1 1l-1 1h-1l-1 1l-1 1l-1 1h-1l-1 1l-1 1l-1 1l-1 1h-1l-1 1l-1 1l-1 1h-1l-1 1l-1 1l-1 1h-1l-1 1l-1 1l-1 1l-1 1h-1l-1 1l-1 1
l-1 1h-1l-1 1l-1 1l-1 1h-1l-1 1l-1 1l-1 1h-1l-1 1l-1 1l-1 1l-1 1h-1l-1 1l-1 1l-1 1h-1l-1 1l-1 1l-1 1h-1l-1 1l-1 1l-1 1l-1 1h-1l-1 1l-1 1l-2 1l-1 1h-1l-1 1l-1 1l-1 1h-1l-1 1l-1 1l-1 1l-1 1h-1l-1 1l-1 1l-1 1h-1l-1 1l-1 1l-1 1h-1l-1 1l-1 1l-1 1l-1 1h-1l-1 1
l-1 1l-1 1h-1l-1 1l-1 1l-1 1h-1l-1 1l-1 1l-1 1l-1 1h-1l-1 1l-1 1l-1 1h-1l-1 1l-1 1l-1 1h-1l-1 1l-1 1l-1 1h-1l-1 1l-1 1l-1 1l-1 1h-1l-1 1l-1 1l-1 1h-1l-1 1l-1 1l-1 1h-1l-1 1l-1 1l-1 1l-1 1h-1l-1 1l-1 1l-1 1h-1l-1 1l-1 1l-1 1h-1l-1 1l-1 1l-1 1h-1l-1 1l-1 1
l-1 1l-1 1h-1l-1 1l-1 1l-1 1h-1l-1 1l-1 1l-1 1h-1l-1 1l-1 1l-1 1l-1 1h-1l-1 1l-1 1l-1 1h-1l-1 1l-1 1l-1 1h-1l-1 1l-1 1l-1 1h-1l-1 1l-1 1l-1 1l-1 1h-1l-1 1l-1 1l-1 1h-1l-1 1l-1 1l-1 1h-1l-1 1l-1 1l-1 1l-1 1h-1l-1 1l-1 1l-1 1h-1l-1 1l-1 1l-1 1h-1l-1 1l-1 1
l-1 1l-1 1h-1l-1 1l-1 1l-1 1h-1l-1 1l-1 1l-1 1h-1l-1 1l-1 1l-1 1h-1l-1 1l-1 1l-1 1l-1 1h-1l-1 1l-1 1l-1 1h-1l-1 1l-1 1l-1 1h-1l-1 1l-1 1l-1 1l-1 1h-1l-1 1l-1 1l-1 1h-1l-1 1l-1 1l-1 1h-1l-1 1l-1 1l-1 1h-1l-1 1l-1 1l-1 1l-1 1h-1l-1 1l-1 1l-1 1h-1l-1 1l-1 1
l-1 1h-1l-1 1l-1 1l-1 1l-1 1h-1l-1 1l-1 1l-1 1h-1l-1 1l-1 1l-1 1h-1l-1 1l-1 1l-1 1h-1l-1 1l-1 1l-1 1l-1 1h-1l-1 1l-1 1l-1 1h-1l-1 1l-1 1l-1 1h-1l-1 1l-1 1l-1 1l-1 1h-1l-1 1l-1 1l-1 1h-1l-1 1l-1 1l-1 1h-1l-1 1l-1 1l-1 1h-1l-1 1l-1 1l-1 1l-1 1h-1l-1 1l-1 1
l-1 1h-1l-1 1l-1 1l-1 1h-1l-1 1l-1 1l-1 1l-1 1h-1l-1 1l-1 1l-1 1l-1 1q4 4 14 14.5t16 15.5q6 7 12 13q71 63 154 80q78 15 137 -18q12 -6 22 -14q54 -40 74 -117q23 -91 -5 -194zM779 691q-59 33 -137 18q-83 -17 -154 -80q-6 -6 -12 -13q81 78 174 94q72 12 129 -19z
" />
    <glyph glyph-name="uniE606" unicode="&#xe606;" 
d="M719 380h-7q-6 -1 -14.5 -1.5t-11.5 -1.5q-48 -9 -50 -10q-7 38 -42.5 63t-83.5 25q-49 0 -85 -25.5t-43 -63.5q-32 6 -62 13l-17 2h-1h-2q-32 0 -48.5 -18t-16.5 -47q0 -20 11 -37l86 -132q19 -34 59 -34l241 -1q35 3 53 34l87 131q12 17 12 37q0 29 -16.5 47.5
t-48.5 18.5zM436 404q14 12 32 18q20 6 41.5 6t41.5 -7q18 -6 32 -17q22 -18 27 -41q-66 -11 -106 -11q-38 0 -95 9q4 25 27 43zM750 292l-85 -128q-2 -2 -4 -5q-10 -18 -31 -20h-2l-237 1q-24 0 -35 20q-1 3 -3 5l-85 129q-6 10 -6 22q0 18 8 28q10 10 29 10h1h2q9 0 12 -1
q34 -8 68 -14q15 -3 29 -5q55 -9 93 -9q41 0 104 10q13 2 29 5t43 9q8 1 11 2q7 1 29 2q19 0 28 -11q9 -10 9 -28q0 -12 -7 -22zM923 474q-34 81 -96 142.5t-142 95.5q-83 36 -174 36t-174 -36q-80 -34 -142 -95.5t-96 -142.5q-35 -83 -35 -174t35 -174q34 -80 96 -142
t142 -96q83 -35 174 -35t174 35q80 34 142 96t96 142q35 83 35 174t-35 174zM511 -113q-112 0 -207.5 55.5t-150.5 150.5t-55 207.5t55 207.5t150.5 150.5t207.5 55.5t207.5 -55.5t150.5 -150.5t55 -207.5t-55 -207.5t-150.5 -150.5t-207.5 -55.5z" />
    <glyph glyph-name="uniE607" unicode="&#xe607;" 
d="M518 144q-70 0 -119 -13.5t-49 -33t49 -33t119 -13.5t119 13.5t49 33t-49 33t-119 13.5zM721 77q-3 -2 -8.5 -6.5t-25 -14.5t-42 -18.5t-59 -15t-76.5 -6.5t-74 6.5t-54.5 15.5t-35 18t-20.5 15l-5 6v162q2 3 7.5 8.5t24 19t39.5 24t56 18.5t72.5 8t72 -8t56.5 -19.5
t39 -23t25 -19.5l7 -8v-162h1zM756 264q-4 4 -11 11.5t-31 26t-49.5 33t-63.5 26t-75 11.5t-77 -11t-71 -27t-57 -32t-40 -27l-14 -11l-73 33v-98q20 -7 20 -29q0 -23 -20 -30l21 -66h-63l22 66q-18 9 -18 30q0 20 17 28v109l-105 48l463 229l425 -232z" />
    <glyph glyph-name="uniE608" unicode="&#xe608;" 
d="M499 166v-65h39v65h-39zM754 97q56 34 67.5 109t-19.5 214l-38 -8q24 -117 -40 -145q-48 -21 -110 16q-63 39 -76 103q-3 14 -2 29l-39 2v-6h-1q3 -69 -60 -119q-57 -45 -111 -34q-62 11 -64 90q-1 27 6 60l-37 8q-31 -135 -21 -209.5t62 -109.5h-143q-11 42 -15.5 63.5
t-5.5 52.5t8.5 58.5t29.5 57.5q0 2 -1 6q-4 18 -6 28.5t-5 30.5t-2.5 33t3 29.5t9.5 27t19.5 19t30.5 10.5q33 4 64 0.5t67 0t58 19.5q55 42 22 179l-38 -10q11 -43 13 -70.5t-4 -45t-21.5 -25t-39.5 -9.5t-58 0q-24 3 -47 0.5t-44 -7t-37 -19.5t-25.5 -37.5t-9.5 -61.5
t11 -90q-20 -33 -29 -64.5t-6 -68.5t8 -61t17 -68q3 -11 4 -16h320q33 -3 77 -3l-1 3h440q13 47 18.5 75t7 63.5t-7.5 68.5t-28 70q8 54 6 94t-13 63t-27.5 38t-37.5 18.5t-44 5.5t-46 -2q-16 -3 -49 -3t-47 11q-32 25 -4 141l-37 10q-13 -63 -15 -103.5t16 -63t51 -29
t88 -1.5q20 4 52 2t48 -16q40 -35 19 -171q34 -63 37 -114t-16 -119h-151zM538 299q33 -41 81 -62t95 -13t73 47q2 -45 -6.5 -75.5t-26 -50t-50.5 -29.5t-71 -13.5t-96 -3.5v-2h-124q-95 7 -134 43t-34 127q26 -40 74.5 -47.5t98 16t81.5 66.5v-78h39v75z" />
    <glyph glyph-name="uniE609" unicode="&#xe609;" horiz-adv-x="1000" 
d="M488 591h54l-1 -251l273 -104l-23 -58l-304 112zM77 317q0 -89 34.5 -170t93 -140t139.5 -93.5t170.5 -34.5t170.5 34.5t139.5 93.5t93.5 140t35 170t-35 170t-93.5 139.5t-139.5 93.5t-170.5 35t-170.5 -35t-139.5 -93.5t-93 -139.5t-34.5 -170z" />
    <glyph glyph-name="uniE60A" unicode="&#xe60a;" 
d="M818 693l99 -198l-405 -444l-405 444l99 198h612zM861 763h-698l-140 -280l489 -535l489 535l-140 280v0zM861 763zM774 675h-524l-95 -191l357 -391l357 391zM726 579h-38l-188 -379l-183 379h-38v31h187v-31h-51l103 -238l104 238h-53v31h157v-31z" />
    <glyph glyph-name="uniE60C" unicode="&#xe60c;" 
d="M154 573.5q0 -15.5 -11 -27t-26.5 -11.5t-26.5 11.5t-11 27t11 26.5t26.5 11t26.5 -11t11 -26.5zM565 690.5q0 -15.5 -11 -26.5t-26.5 -11t-26.5 11t-11 26.5t11 26.5t26.5 11t26.5 -11t11 -26.5zM973 573.5q0 -15.5 -11.5 -27t-27 -11.5t-26.5 11.5t-11 27t11 26.5
t26.5 11t27 -11t11.5 -26.5zM833 107q0 -10 -7.5 -18t-18.5 -8h-574q-11 0 -18.5 8t-7.5 18q0 11 7.5 18.5t18.5 7.5h574q11 0 18.5 -7.5t7.5 -18.5zM710 405l-183 221l-185 -211l-188 110l53 -337h623l67 337zM544 235h-36v163q-26 -23 -66 -40v33q53 22 74 60h28v-216z
" />
    <glyph glyph-name="uniE60D" unicode="&#xe60d;" 
d="M154 573.5q0 -15.5 -11 -27t-26.5 -11.5t-26.5 11.5t-11 27t11 26.5t26.5 11t26.5 -11t11 -26.5zM565 690.5q0 -15.5 -11 -26.5t-26.5 -11t-26.5 11t-11 26.5t11 26.5t26.5 11t26.5 -11t11 -26.5zM973 573.5q0 -15.5 -11.5 -27t-27 -11.5t-26.5 11.5t-11 27t11 26.5
t26.5 11t27 -11t11.5 -26.5zM833 107q0 -10 -7.5 -18t-18.5 -8h-574q-11 0 -18.5 8t-7.5 18q0 11 7.5 18.5t18.5 7.5h574q11 0 18.5 -7.5t7.5 -18.5zM710 405l-183 221l-185 -211l-188 110l53 -337h623l67 337zM596 264v-28h-152v21q23 40 66 72q53 38 49 60q-1 35 -38 35
q-32 0 -42 -40l-33 9q15 60 81 60q66 -2 70 -60q5 -39 -51 -74q-42 -28 -58 -55h108z" />
    <glyph glyph-name="uniE60E" unicode="&#xe60e;" 
d="M154 573.5q0 -15.5 -11 -27t-26.5 -11.5t-26.5 11.5t-11 27t11 26.5t26.5 11t26.5 -11t11 -26.5zM565 690.5q0 -15.5 -11 -26.5t-26.5 -11t-26.5 11t-11 26.5t11 26.5t26.5 11t26.5 -11t11 -26.5zM973 573.5q0 -15.5 -11.5 -27t-27 -11.5t-26.5 11.5t-11 27t11 26.5
t26.5 11t27 -11t11.5 -26.5zM833 107q0 -10 -7.5 -18t-18.5 -8h-574q-11 0 -18.5 8t-7.5 18q0 11 7.5 18.5t18.5 7.5h574q11 0 18.5 -7.5t7.5 -18.5zM710 405l-183 221l-185 -211l-188 110l53 -337h623l67 337zM523 233q-66 -2 -78 55l36 7q8 -37 43 -37q39 1 41 38
q0 35 -50 35h-20v27h15q47 1 48 35q0 32 -34 32q-34 -1 -40 -36l-35 8q15 55 77 56q66 -2 69 -56q0 -40 -43 -50v-1q47 -8 50 -52q-3 -59 -79 -61z" />
    <glyph glyph-name="uniE60F" unicode="&#xe60f;" 
d="M516 360h196v-40h-196v40zM516 288h196v-40h-196v40zM854 810h-684q-35 0 -60 -24.5t-25 -60.5v-678q0 -36 25 -60.5t60 -24.5h684q35 0 60 24.5t25 60.5v678q0 36 -25 60.5t-60 24.5zM420 609l34 -13q-5 -11 -14 -31q-22 -55 -34 -79l-31 16q27 53 45 107zM283 609
q2 -8 9 -29q9 -20 27 -81l-34 -13q-2 7 -7 22q-18 63 -29 90zM433 264q-28 32 -62 71v-215h-36v222q-30 -81 -77 -146q-2 7 -6 18q-3 5 -12 25q61 79 88 177h-81v36h88v198h36v-198h65v-36h-65v-74l20 20q36 -36 69 -71zM683 127h-77q0 20 -6 40h31q30 -2 47 -2q36 -2 34 25
v26h-196v-94h-38v272h272v-207q2 -63 -67 -60zM784 428h-330v33h139v38h-117v32h117v38h-133v34h133v49h38v-49h144v-34h-144v-38h128v-32h-128v-38h153v-33z" />
    <glyph glyph-name="uniE613" unicode="&#xe613;" 
d="M797 765h-568q-41 0 -70.5 -29t-29.5 -71v-567q0 -41 29.5 -70.5t70.5 -29.5h568q41 0 70.5 29.5t29.5 70.5v567q0 42 -29.5 71t-70.5 29zM876 98q0 -33 -23.5 -56.5t-55.5 -23.5h-568q-33 0 -56.5 23.5t-23.5 56.5v567q0 33 23.5 56.5t56.5 23.5h568q32 0 55.5 -23.5
t23.5 -56.5v-567zM449 632l-29 3q-6 -81 -28 -143l25 -7q25 64 32 147zM286 487q-13 76 -29 135l-27 -8q20 -67 31 -135zM503 86h33v106h202v-49q0 -24 -24 -24l-45 2l8 -32h48q47 0 47 47v252h-269v-302zM536 359h202v-57h-202v57zM536 274h202v-54h-202v54zM358 411h81v33
h-81v232h-34v-232h-96v-33h95q-32 -108 -110 -192l15 -37q61 75 96 170v-267h34v275q38 -52 80 -123l20 30q-54 73 -100 124v20zM656 521h120v29h-120v52h139v29h-139v47h-35v-47h-143v-29h143v-52h-124v-29h124v-53h-158v-30h349v30h-156v53z" />
    <glyph glyph-name="uniE614" unicode="&#xe614;" 
d="M513 832q-91 0 -174 -35t-143 -95t-95 -143t-35 -174t35 -174t95 -143t143 -95t174 -35t174 35t143 95t95 143t35 174t-35 174t-95 143t-143 95t-174 35zM513 -44q-116 0 -215 57.5t-156.5 156.5t-57.5 215t57.5 215t156.5 156.5t215 57.5t215 -57.5t156.5 -156.5
t57.5 -215t-57.5 -215t-156.5 -156.5t-215 -57.5zM400 414h233q-7 -17 -16.5 -37.5t-15.5 -35.5t-16.5 -38t-15.5 -37v0q8 14 9 16q1 1 2 3t1 3q4 7 13.5 25t14.5 27q10 18 23 42q0 2 5.5 12.5t8.5 15.5q1 2 4 3q26 13 47 23q7 3 21 9.5t19 8.5q5 3 10 5.5t11.5 5.5t9.5 4
q1 0 3 1h1l-1 -1l-1 -1l-1 -1l-1 -1l-1 -1v-1l-1 -1l-1 -1l-1 -1l-1 -1l-1 -1v-1l-1 -1l-1 -1l-1 -1l-1 -1v-1l-1 -1l-1 -1l-1 -1l-1 -1l-1 -1v-1l-1 -1l-1 -1l-1 -1l-1 -1l-1 -1v-1l-1 -1l-1 -1l-1 -1l-1 -1l-1 -1v-1l-1 -1l-1 -1l-1 -1l-1 -1l-1 -1v-1l-1 -1l-1 -1l-1 -1
l-1 -1v-1l-1 -1l-1 -1l-1 -1l-1 -1l-1 -2l-1 -1l-1 -1v-1l-1 -1l-1 -1l-1 -1l-1 -1v-1l-1 -1l-1 -1l-1 -1l-1 -1l-1 -1v-1l-1 -1l-1 -1l-1 -1l-1 -1l-1 -1v-1l-1 -1l-1 -1l-1 -1h-1l-1 -1v-1l-1 -1l-1 -1l-1 -1l-1 -1v-1l-1 -1l-1 -1l-1 -1l-1 -1l-1 -1v-1l-1 -1l-1 -1
l-1 -1l-1 -1l-1 -1v-1l-1 -1l-1 -1l-1 -1l-1 -1l-1 -1v-1l-1 -1l-1 -1l-1 -1l-1 -1v-1l-1 -1l-1 -1l-1 -1l-1 -1l-1 -1v-1l-1 -1l-1 -1l-1 -1l-1 -1l-1 -1v-1l-1 -1l-1 -1l-1 -1l-1 -1l-1 -1v-1l-1 -1l-1 -1l-1 -1l-1 -1v-1l-1 -1l-1 -1l-1 -1l-1 -1l-1 -1v-1l-1 -1l-1 -1
l-1 -1l-1 -1l-1 -1v-1l-1 -1l-1 -1l-1 -1l-1 -1l-1 -1v-1l-1 -1l-1 -1l-1 -1l-1 -1v-1l-1 -1l-1 -1l-1 -1l-1 -1l-1 -1v-1l-1 -1l-1 -1l-1 -1l-1 -1l-1 -1v-1l-1 -1l-1 -1l-1 -1l-1 -1l-1 -1v-1l-1 -1l-1 -1l-1 -1l-1 -1v-1l-1 -1l-1 -1l-1 -1l-1 -1l-1 -1v-1l-1 -1l-1 -1
l-1 -1l-1 -1l-1 -1v-1l-1 -1l-1 -1l-1 -1l-1 -1l-1 -1v-1l-1 -1l-1 -1l-1 -1l-1 -1l-1 -1v-1l-1 -1l-1 -1l-1 -1l-1 -1v-1l-1 -1l-1 -1l-1 -1l-1 -1l-1 -1v-1l-1 -1l-1 -1l-1 -1l-1 -1l-1 -1v-1l-1 -1l-1 -1l-1 -1l-1 -1l-1 -1v-1l-1 -1l-1 -1l-1 -1l-1 -1v-1l-1 -1l-1 -1
l-1 -1l-1 -1l-1 -1v-1l-1 -1l-1 -1l-1 -1l-1 -1l-1 -1v-1l-1 -1l-1 -1l-1 -1l-1 -1l-1 -1v-1l-1 -1l-1 -1l-1 -1l-1 -1v-1l-1 -1l-1 -1l-1 -1l-1 -1l-1 -1v-1l-1 -1l-1 -1l-1 -1l-1 -1l-1 -1v-1l-1 -1l-1 -1l-1 -1l-1 -1l-1 -1v-1l-1 -1l-1 -1l-1 -1l-1 -1l-1 -1v-1l-1 -1
l-1 -1l-1 -1l-1 -1v-1l-1 -1l-1 -1l-1 -1l-1 -1l-1 -1v-1l-1 -1l-1 -1l-1 -1l-1 -1l-1 -1v-1l-1 -1l-1 -1l-1 -1l-1 -1l-1 -1v-1l-1 -1l-1 -1l-1 -1l-1 -1l-1 -1v-1l-1 -2q-51 56 -272 304v0l13 -5q43 -17 53 -21q8 -3 22.5 -9t22.5 -9q3 -1 9.5 -3.5t10.5 -4.5l2 -2
q5 -9 13.5 -24.5t9.5 -17.5q16 -27 28 -49q4 -6 8 -13.5t9 -16.5t8 -13q17 -30 26 -45q-15 32 -43.5 91.5t-40.5 85.5zM400 414zM693 536l-7 -3q-6 -2 -18 -7.5t-18 -8.5q-17 -8 -20 -8q-3 -2 -19 -5q-3 -1 -7 -1h-171q-4 0 -14 2q-11 3 -16 4q-6 3 -16 7q-4 2 -8.5 4.5
t-9.5 5t-8 3.5q-2 1 -20 11q28 9 29 9q20 7 37 12q2 1 3 1h214q2 0 10 -3q14 -5 34 -13q2 -1 24 -9q0 -1 1 -1zM693 536zM640 427h-230q0 1 1 4.5t2 4.5q15 45 18 53q0 2 3 2h96h75q4 0 5 -3q12 -25 21 -44q1 -1 9 -17zM640 427zM420 490q-4 -9 -12.5 -30t-12.5 -32
q-7 2 -59.5 22t-81.5 31q12 8 13 9q6 4 19 12.5t20 13.5q19 13 22 15q2 1 4 0q6 -2 16 -7t13 -7q7 -3 20 -9t16 -7q7 -3 21 -10zM420 490zM770 481q-32 -15 -114 -54q-5 11 -6 11q-3 6 -9 17t-8 16q-2 3 -5.5 10t-5.5 10q-1 3 1 4l48 24q19 10 27 14q3 1 6 -1q1 -1 10 -8
t14 -11l12 -9l12 -9q1 0 18 -14zM770 481z" />
    <glyph glyph-name="uniE615" unicode="&#xe615;" 
d="M487 686h-243q0 -2 -7.5 0t-18 -4t-20.5 -14.5t-15.5 -30.5t-2.5 -54q1 -2 3.5 -5t9 -8.5t13.5 -7.5t17.5 3t20.5 18q1 2 1 16.5t4 22t14 7.5q15 0 267 0.5t270 -0.5q5 0 9 -6.5t2 -15.5t-11 -15h-502h-6q-4 0 -15.5 -3.5t-20.5 -9.5t-18 -20t-13 -34q-5 -61 0 -101
q3 -23 23.5 -40t49.5 -17h125h217h160q64 12 64 77q1 66 -64 72h-238h-234q-10 -1 -15 -13t-1.5 -25t16.5 -17q243 1 469 0q5 0 9.5 -6t3.5 -15.5t-10 -15.5q-3 0 -212 0.5t-290 -0.5q-20 5 -28.5 31.5t0 52.5t28.5 29h502q2 0 6.5 1t15 6t19 13t15 23.5t6.5 36.5
q0 11 -1 19t-6.5 20t-19.5 19.5t-35 10.5h-313zM254 98q-4 -8 -12.5 -14.5t-21.5 -4.5t-23 19q-1 28 0 160q-1 24 21.5 49.5t62.5 25.5h506q1 -1 9 0.5t21 -2.5t25 -10t21 -23t9 -40v-141q1 -3 1 -8t-3 -18t-10 -23t-25.5 -18t-45.5 -8h-507q-6 0 -11.5 8.5t-3 20t14.5 19.5
h507h3q3 0 9 1.5t10.5 4t9 8t5.5 13.5l-1 141q0 1 -0.5 3t-2.5 7t-5.5 8.5t-10.5 6.5t-17 3h-507q-4 0 -8.5 -1.5t-12 -8.5t-7.5 -17v-161zM481 295h54v-213h-54v213zM845 184q0 -12 -8 -20t-19 -8h-502q-11 0 -19 8t-8 20q0 11 8 19t19 8h502q11 0 19 -8t8 -19zM486 686
q-15 19 -15 44q0 30 20.5 51t50 21t50.5 -21t21 -51q0 -25 -15 -44h-112zM486 686zM486 686h112h-112z" />
    <glyph glyph-name="uniE616" unicode="&#xe616;" 
d="M958 288q0 53 -63.5 90t-152.5 37q-13 0 -25 -1v209v16q0 53 -60 89.5t-149 36.5q-90 0 -151.5 -36.5t-61.5 -89.5q0 -7 2 -16v-57h-20q-89 0 -150 -36t-61 -89v-16v-292h2q3 -50 63 -84t146 -34t149 34t66 84h1v12q3 0 7 -0.5t8 -0.5q10 0 23 1v-4h2l-1 -8q0 -52 62 -90
t151 -38t150.5 36t61.5 88v8h1v134q1 2 0.5 9t-0.5 8zM745 375q75 0 126.5 -27.5t51.5 -60t-51.5 -59.5t-126.5 -27t-126.5 27t-51.5 59.5t51.5 60t126.5 27.5zM925 217v-22q-8 -34 -60.5 -57.5t-119.5 -23.5t-119.5 23.5t-60.5 57.5v22q29 -26 76.5 -41.5t103.5 -15.5
t103 15.5t77 41.5zM508 394q-3 0 -15 1v30q1 4 2 10q10 -1 13 -1q113 0 174 56v-17q-8 -32 -58 -55.5t-116 -23.5zM685 411q-8 -2 -9 -2q7 6 9 8v-6zM508 725q74 0 123 -27t49 -59t-49 -59t-123 -27t-124.5 27t-50.5 59t50.5 59t124.5 27zM331 569q2 -2 10 -8l-10 1v7z
M277 526q74 0 126 -26.5t52 -58.5t-52 -59t-126 -27t-124.5 27t-50.5 59t50.5 58.5t124.5 26.5zM100 371q29 -26 75.5 -41t101.5 -15t103 15t77 41v-22q-8 -33 -61 -56.5t-119 -23.5t-118 23.5t-59 56.5v22zM100 292q28 -26 74.5 -41t102.5 -15t104 15t76 41v-17
q-8 -32 -61 -55.5t-119 -23.5t-118 23t-59 56v17zM100 218q28 -26 74.5 -41t102.5 -15t104 15.5t76 40.5v-16q-8 -33 -61 -56.5t-119 -23.5t-118 23.5t-59 55.5v17zM277 48q-69 0 -121.5 25t-56.5 60h1v12q28 -26 74.5 -41.5t102.5 -15.5t104 15.5t76 41.5v-12
q-3 -34 -57 -59.5t-123 -25.5zM490 469q-8 22 -47 50q33 -5 65 -5q112 0 174 55v-22q-8 -33 -58 -56t-116 -23q-5 0 -18 1zM531 178q-13 -1 -23 -1q-4 0 -15 1v36q11 -1 15 -1q10 0 23 1v-36zM531 247q-13 -1 -23 -1q-3 0 -15 1v40h15h21q1 -6 2 -13v-27v0zM536 321
q-14 -1 -28 -1q-4 0 -15 1v40q12 -1 15 -1q32 0 65 6q-26 -20 -37 -45zM745 39q-72 0 -126 26.5t-55 62.5v9h1q28 -26 75.5 -41.5t104 -15.5t104 15.5t76.5 41.5l1 -8q0 -36 -54.5 -63t-126.5 -27zM260 415q-2 2 -4 11h-25q0 -18 16 -26q9 -4 27 -5v-13h9v13q15 0 25 5
q18 7 18 24q0 12 -13 19q-7 4 -30 10v24q10 0 13 -5q2 -2 3 -8h24q0 15 -16 22q-8 5 -24 6v8h-9v-8q-9 -1 -14 -2q-8 -2 -15 -6q-5 -4 -8 -9t-3 -11q0 -9 7.5 -15.5t25.5 -10.5l7 -1v-28q-10 1 -14 6zM283 435q8 -2 11 -4q6 -4 6 -9q0 -7 -6 -10q-3 -2 -11 -3v26zM264 458
q-6 3 -6 8t4 8t12 3v-23q-6 2 -10 4zM725 269q-2 2 -3 10h-26q0 -18 16 -25q9 -4 28 -6v-13h9v14q14 0 25 5q17 7 17 24q0 12 -13 19q-7 4 -29 9v25q9 0 12 -5q2 -3 3 -8h25q-1 15 -17 22q-8 5 -23 5v9h-9v-8q-10 -1 -15 -2q-8 -2 -15 -6q-5 -4 -8 -9t-3 -11q0 -9 7.5 -15.5
t25.5 -10.5l8 -1v-28q-11 1 -15 6zM749 288q7 -2 11 -3q5 -4 5 -9q0 -8 -6 -11q-3 -1 -10 -2v25v0zM729 311q-5 4 -5 9t3.5 8t12.5 3v-23q-7 2 -11 3zM490 611q-3 3 -4 11h-25q-1 -18 15 -26q9 -4 28 -5v-13h9v13q14 1 25 5q17 8 17 24q0 13 -12 19q-8 5 -30 10v25
q9 -1 13 -5q2 -3 2 -9h25q-1 16 -16 23q-9 4 -24 5v9h-9v-9q-10 -1 -15 -2q-8 -1 -14 -6q-6 -4 -8.5 -8.5t-2.5 -11.5q0 -9 7 -15.5t25 -9.5l8 -2v-28q-11 2 -14 6zM513 631q8 -2 11 -4q5 -3 5 -9q0 -7 -5 -10q-4 -2 -11 -3v26v0zM494 654q-6 3 -6 9q0 5 4 7.5t12 2.5v-22
q-7 1 -10 3z" />
    <glyph glyph-name="uniE617" unicode="&#xe617;" 
d="M466 733h-325q-1 1 -3 1t-9 -0.5t-13 -2.5t-15 -5.5t-15.5 -10.5t-14 -17t-11 -24t-6 -33t1.5 -44q1 -3 4 -7t12 -11.5t18 -10t23.5 4t27.5 24.5q1 2 1.5 21t5.5 29.5t18 10.5q20 0 356 0.5t360 -0.5q6 0 11.5 -9t3.5 -21t-15 -19h-669q-3 0 -8.5 -0.5t-20.5 -5
t-27 -12.5t-24 -27t-17 -44q-7 -82 -1 -135q4 -31 32 -53.5t66 -22.5h167h289h213q85 15 85 102q0 12 -0.5 20.5t-5 23t-12.5 24t-25.5 18t-41.5 10.5h-629q-6 0 -13.5 -5.5t-11.5 -14t-4.5 -18t7 -19.5t22.5 -16q324 1 626 0q6 0 12.5 -8.5t5 -20.5t-14.5 -20h-204h-236
h-229q-16 1 -24.5 34.5t-1.5 70.5t26 45h669q3 0 9 1t20 8t25 17.5t20 31.5t9 49q0 12 -0.5 20t-5 21t-12.5 22t-25 17t-40 11h-418h2zM154 -50q-4 -7 -11.5 -14t-18 -11.5t-23.5 1.5t-23 24q-1 37 0 213q0 18 10.5 40t37.5 41t65 19h675q1 -2 11.5 0t27.5 -3t33.5 -13.5
t28.5 -30.5t12 -53v-188q0 -4 0.5 -11t-3.5 -24.5t-13.5 -30.5t-34.5 -23.5t-61 -10.5h-676q-8 0 -15 11.5t-4 27t19 24.5l676 1h5q3 0 11 2t14.5 5t12 11t6.5 18l-1 188v4q0 3 -3 9.5t-7.5 11.5t-14.5 9t-23 3h-676q-4 0 -10 -2t-16.5 -11t-10.5 -22v-53v-94v-68zM456 213
h73v-285h-73v285zM943 64q0 -15 -10.5 -26t-26.5 -11h-669q-15 0 -26 11t-11 26t11 25.5t26 10.5h669q16 0 26.5 -10.5t10.5 -25.5zM464 733q-21 26 -21 60q0 39 28 67t67.5 28t67 -28t27.5 -67q0 -34 -20 -60h-149zM464 733zM464 733h149h-149z" />
    <glyph glyph-name="uniE618" unicode="&#xe618;" 
d="M841 274q-44 0 -82 -19.5t-64 -53.5l-264 124q8 30 8 59t-8 59l264 124q26 -34 64 -53.5t82 -19.5q76 0 129.5 53.5t53.5 129t-53.5 129t-129.5 53.5t-129.5 -53.5t-53.5 -128.5q0 -20 6 -43l-264 -125q-31 44 -78.5 69t-102.5 25q-90 0 -154.5 -64t-64.5 -155t64.5 -155
t154.5 -64q55 0 102.5 25t78.5 69l264 -125q-6 -23 -6 -43q0 -75 53.5 -128.5t129.5 -53.5t129.5 53.5t53.5 129t-53.5 129t-129.5 53.5zM841.5 786q45.5 0 77.5 -32t32 -77.5t-32 -77.5t-77.5 -32t-78 32t-32.5 77.5t32.5 77.5t78 32zM219.5 238q-60.5 0 -103.5 43t-43 103
t43 103t103.5 43t103.5 -43t43 -103t-43 -103t-103.5 -43zM841.5 -18q-45.5 0 -78 32t-32.5 77.5t32.5 77.5t78 32t77.5 -32t32 -77.5t-32 -77.5t-77.5 -32z" />
    <glyph glyph-name="uniE619" unicode="&#xe619;" 
d="M911 601v77h-51h-696h-51v-77l295 -295v-333h1l157 -119v-1h51v453h-1zM860 627v-5l-268 -268h-160l-268 268v5h696zM459 -1v304h107v-385z" />
    <glyph glyph-name="uniE61A" unicode="&#xe61a;" 
d="M872 797h-720h-38v-89h1l-1 -1l290 -289v-9v-307l173 -124h43v431v9v1l289 288l-1 1h2v52v37h-38zM583 19l-142 102v288h142v-390zM872 723l-277 -277h-167l-276 277v37h720v-37z" />
    <glyph glyph-name="uniE61B" unicode="&#xe61b;" 
d="M1024 111v504q0 81 -58 138.5t-139 57.5h-630q-81 0 -139 -57.5t-58 -138.5v-630q0 -82 58 -139.5t139 -57.5h630q72 0 126.5 46t67.5 116q-283 122 -397 176q-71 -86 -147.5 -129.5t-177.5 -43.5q-105 0 -169 56.5t-55 137.5q2 24 9.5 46t26.5 47t46.5 42t74.5 26t107 3
q23 -2 43 -4.5t40 -6.5t32.5 -7t33.5 -9.5t30.5 -9.5t35 -11.5t35.5 -11.5q35 64 57 139h-398v40h197v70h-240v44h240v102q0 2 1 4.5t6 7t13 4.5h98v-118h256v-44h-256v-70h209q-29 -116 -85 -213q27 -10 111 -36.5t155 -48.5l71 -21v0zM284 20q-36 0 -65 7.5t-46.5 19
t-30.5 26t-17.5 29.5t-7 28.5t0.5 23.5q7 34 42.5 62.5t92.5 28.5q131 0 284 -75q-55 -72 -120 -111t-133 -39z" />
    <glyph glyph-name="uniE61C" unicode="&#xe61c;" 
d="M316 492q-15 0 -27.5 -9t-12.5 -23.5t12.5 -24t27.5 -9.5t24 9t9 24t-9 24t-24 9v0zM502 426q15 0 24 9t9 24t-9 24.5t-24 9.5q-16 0 -28 -9.5t-12 -24t12 -24t28 -9.5v0zM588 300q-10 0 -18 -8.5t-8 -18t8 -18t18 -8.5q15 0 24 8t9 18.5t-9 18.5t-24 8v0zM734 300
q-10 0 -18 -8.5t-8 -18t8 -18t18 -8.5q15 0 24 8t9 18.5t-9.5 18.5t-23.5 8v0zM827 812h-630q-81 0 -139 -58t-58 -139v-630q0 -81 58 -139t139 -58h630q72 0 126.5 46.5t67.5 115.5l3 161v504q0 81 -58 139t-139 58v0zM403 154q-27 0 -93 13l-93 -46l26 80
q-106 74 -106 179q0 94 78 159.5t188 65.5q97 0 173.5 -53t93.5 -133q-13 2 -25 2q-95 0 -160.5 -61.5t-65.5 -148.5q0 -28 8 -56q-14 -1 -24 -1v0zM794 61l20 -66l-73 40q-53 -14 -80 -14q-94 0 -159.5 56.5t-65.5 136.5t65.5 136t159.5 56q91 0 158.5 -56.5t67.5 -135.5
q0 -83 -93 -153v0zM794 61z" />
    <glyph glyph-name="uniE61D" unicode="&#xe61d;" 
d="M434 696q-45 -4 -73 -22t-38 -46.5t-13.5 -65.5t-0.5 -78.5t2.5 -86.5t-5.5 -88q-9 -61 -7 -211.5t0 -162.5q-4 -18 -12 -29.5t-21.5 -24t-21.5 -25.5h481q-6 22 -13.5 33.5t-13 13t-11.5 9t-9.5 21.5t-6 50.5t-2.5 96.5q0 17 1.5 85t2 132.5t0 136t-5.5 123t-15 66.5
q-18 29 -38.5 42.5t-42 21.5t-34.5 22q-6 6 -11.5 17.5t-10.5 18.5t-14 7q-35 0 -49.5 -12t-17.5 -44z" />
    <glyph glyph-name="uniE61F" unicode="&#xe61f;" 
d="M275 48q-77 0 -126 49q-46 47 -46 118t50 119q51 49 128 49q58 0 126 -32q70 -33 99 -75q25 -36 12 -69q-21 -57 -95.5 -108t-147.5 -51zM281 336q-58 0 -95 -36q-36 -34 -36 -85q0 -52 33 -85q34 -35 92 -35t123 44q60 41 76 84q4 10 -7 26q-22 32 -80.5 59.5
t-105.5 27.5zM749 48q-73 0 -147.5 51t-95.5 108q-13 33 12 69q29 42 99 75q68 32 126 32q77 0 128 -49q50 -48 50 -119t-46 -118q-49 -49 -126 -49zM743 336q-47 0 -105.5 -27.5t-80.5 -59.5q-11 -16 -7 -26q16 -43 76 -84q65 -44 123 -44t92 35q33 33 33 85q0 51 -36 85
q-37 36 -95 36zM269 139q-61 0 -103 18q-30 12 -48 33q-6 5 -6 13q0 11 10 15q9 3 17 -5l2 -2q14 -16 37 -26q48 -20 125 -14q104 8 164 47q19 12 29 12q7 0 11.5 -4.5t4.5 -10.5t-4.5 -10.5t-11.5 -4.5q-2 -1 -12 -7q-66 -44 -178 -53q-19 -1 -37 -1zM754 139q-18 0 -37 1
q-112 9 -178 53q-10 6 -12 7q-7 0 -11.5 4.5t-4.5 10.5t4.5 10.5t11.5 4.5q10 0 29 -12q60 -39 164 -47q77 -6 125 14q23 10 37 26l2 2q8 8 17 5q10 -4 10 -15q0 -8 -6 -13q-19 -21 -48 -33q-42 -18 -103 -18zM799 335q-8 0 -15 5.5t-8 13.5l-48 263q-2 10 3.5 18t15 9.5
t17.5 -4t10 -14.5l48 -263q2 -10 -3.5 -18t-15.5 -9q-2 -1 -4 -1zM230 335q-2 0 -5 1q-9 1 -14.5 9t-3.5 18l48 263q1 9 9 14.5t18 4t15.5 -9.5t3.5 -18l-48 -263q-2 -8 -8.5 -13.5t-14.5 -5.5z" />
    <glyph glyph-name="uniE620" unicode="&#xe620;" horiz-adv-x="1280" 
d="M1231 355l-51 80l7 461h-71l31 -452l-495 -293h-23l-498 294l31 451h-71l7 -464l-49 -77q-44 -70 -47.5 -151.5t34 -153.5t107.5 -117q100 -63 214.5 -44t187.5 109h2l1 1q13 26 38.5 42.5t55.5 16.5q41 0 71 -28l2 -4q45 -70 117.5 -107.5t153.5 -34t151.5 48.5t108 117
t34 153.5t-48.5 151.5zM642 78q-27 0 -51 -11l45 70h9l43 -68q-22 9 -46 9z" />
    <glyph glyph-name="uniE621" unicode="&#xe621;" 
d="M505 883q-1 8 -10.5 8t-10.5 -8q-10 -77 -31 -145t-46.5 -118t-54.5 -95.5t-56 -86t-49 -81t-35 -88.5t-13 -100q0 -121 87.5 -206.5t208 -85.5t208 85.5t87.5 206.5q0 52 -13.5 100t-35.5 88.5t-48.5 81t-55.5 86t-55 95.5t-47 118t-30 145zM568 -18q-11 0 -18.5 8
t-7.5 19.5t7.5 19.5t18.5 8q27 0 46.5 19.5t19.5 48.5q0 11 7.5 19t18.5 8q18 0 24 -17q2 -5 2 -10q0 -51 -34.5 -87t-83.5 -36z" />
    <glyph glyph-name="uniE622" unicode="&#xe622;" 
d="M569 622l-31 12q-10 4 -19 0t-13 -12.5t0 -17t13 -12.5l31 -12q10 -4 19 0t13 12.5t0 17t-13 12.5zM577 594q-5 -10 -17 -10q-4 0 -8 1l-31 12q-7 3 -10 9.5t0 13.5q5 10 17 10q4 0 8 -1l31 -12q7 -3 10 -9.5t0 -13.5zM567 617l-31 12q-4 1 -8 1q-12 0 -17 -10
q-3 -7 0 -13.5t10 -9.5l31 -12q4 -1 8 -1q12 0 17 10q3 7 0 13.5t-10 9.5zM571.5 596.5q-4.5 -10.5 -16.5 -6.5l-31 12q-12 5 -7 15.5t16 6.5l31 -12q12 -5 7.5 -15.5zM560 580q-5 0 -9 1l-31 12q-9 4 -12.5 12t-0.5 16q6 13 21 13q5 0 9 -1l31 -12q9 -4 13 -12t0 -16
q-6 -13 -21 -13zM528 626q-9 0 -13 -8q-2 -5 0 -10t8 -7l31 -12q3 -1 6 -1q9 0 13 8q2 5 0 10t-8 7l-31 12q-3 1 -6 1zM581 609l-1 1q-1 2 -3.5 4.5t-5.5 4.5q-4 2 -9.5 4t-13 5t-11.5 4q-10 4 -19 -0.5t-11 -11.5q-2 -5 -1.5 -8t0.5 -4l1 -2l-1 2q0 1 -0.5 4t1.5 8
q1 7 10.5 11.5t19.5 1.5q28 -11 34 -13q4 -2 6.5 -5t2.5 -5zM420 577v-2l26 -23h2zM478.5 605q-5.5 5 -13 5t-12.5 -5l-31 -29l25 -23l31 28q6 5 6 12t-5.5 12zM462 581q-4 0 -7 2.5t-3 6.5t3 6l3 3q3 3 7.5 3t6.5 -3q7 -6 0 -12l-3 -4q-3 -2 -7 -2zM474 601q-4 3 -8.5 3
t-8.5 -3l-3 -4q-4 -3 -4 -7.5t3.5 -7.5t8.5 -3t8 3l4 4q8 7 0 15zM472 587l-3 -4q-3 -2 -7 -2t-7 2.5t-3 6.5t3 6l3 3q3 3 7.5 3t6.5 -3q7 -6 0 -12zM462 566l-25 24l-17 -13l28 -25zM437 590q6 -5 13 -11l12 -13q-6 6 -13 12zM571 605q-7 6 -14 -0.5t0 -12.5l36 -33l14 13z
M615 577v-2l-25 -23h-2zM579 572l14 13l22 -8l-27 -25zM593 585l-7 -7l-7 -6l7 7zM466 586q-6 -2 -8 4q-2 5 4 7l67 20q6 2 8 -3t-4 -7zM462 587q-3 0 -4 3q-1 1 0 2.5t3 2.5l70 21q1 1 2 1q3 0 4 -3q1 -4 -3 -5l-71 -22h-1zM531 616q-15 -5 -35 -11q-5 -1 -11 -3t-10 -3
t-7.5 -2t-5.5 -1l-1 -1l5 1q4 2 12.5 4.5t17.5 5.5zM713 135q-35 3 -65 17q-4 2 -16 -2q-2 -1 -4 1l-4 5v11l-11 3l2 11l-10 4l2 9l-10 5l3 9l-8 5l3 8l-8 5l3 8l-7 5l4 8l-7 5l4 6l-6 6l4 6l-6 5l4 6l-5 5l4 5l-4 5l4 5l-4 5l4 5l-3 5l4 4l-3 4l4 4l-3 5q1 7 5 13t10 5
q10 -2 8 -21q-6 -65 27.5 -107t88.5 -46q52 -4 92 27t45 79q1 12 0 23q-1 2 0 4q0 9 7 15.5t17 7.5q12 1 20.5 -6t9.5 -17v-5q-7 -72 -57 -121q-57 -56 -138 -49zM586 348q-2 -1 -4 -4q-2 -5 -4 -11l3 -5l-4 -4l3 -4l-4 -4l4 -5l-4 -5l4 -5l-5 -5l5 -5l-4 -5l5 -5l-4 -6
l5 -5l-3 -6l6 -5l-4 -7l6 -5l-3 -8l7 -5l-3 -7l7 -6l-3 -8l9 -5l-3 -9l9 -4l-2 -10l10 -4l-1 -10l11 -4l-1 -11l1 -1l1 -1l3 -3q0 -1 2 -1h1q8 3 13 3h3q30 -15 65 -18h16q71 0 121 49t57 120v1v3v2q-1 9 -8.5 15.5t-17.5 6.5h-3q-9 -1 -16 -7t-8 -15v-2v-2q1 -6 1 -11.5
t-1 -11.5q-4 -46 -40.5 -76.5t-85.5 -30.5h-11q-51 4 -84.5 40.5t-33.5 95.5q0 9 1 18q1 3 1 5q0 6 -2 10t-6 5h-2q-2 0 -5 -2zM629 151q-1 0 -3 3l-2 2l1 11l-11 4l1 10l-10 4l2 10l-9 4l3 9l-9 5l3 8l-7 6l3 7l-7 5l3 8l-6 5l4 7l-6 5l3 6l-5 5l4 6l-5 5l4 5l-5 5l5 5
l-4 5l4 5l-4 5l4 4l-3 4l4 4l-3 5q2 6 4 11q2 3 4 4q3 2 5 2h2v1h-2q-3 0 -5 -2q-6 -4 -9 -16l3 -5l-4 -3l3 -5l-4 -4l3 -5l-4 -5l4 -5l-4 -5l4 -5l-3 -5l4 -5l-3 -6l5 -5l-4 -6l6 -6l-4 -6l7 -6l-4 -7l8 -5l-4 -8l8 -5l-3 -8l8 -5l-2 -9l9 -5l-2 -9l10 -5l-1 -10l11 -4
l-1 -10l5 -6q1 -1 3 -1v1q-2 0 -2 1zM728 177h-11q-50 4 -83 40.5t-33 94.5v18q1 3 1 5q0 6 -2 10q-2 5 -7 6v-1q4 -1 6 -5t2 -10q0 -2 -1 -5q-1 -9 -1 -18q0 -59 33.5 -95.5t84.5 -40.5h11q52 0 89 34v1q-37 -34 -89 -34zM878 332v1q-10 0 -17 -7t-8 -16v-2v-2
q1 -6 1 -11.5t-1 -11.5q-4 -42 -36 -72v-1q33 30 37 73q1 6 1 11.5t-1 11.5v2v2q1 9 8 15t16 7zM909 308v2q-1 10 -9 16.5t-19 6.5h-3v-1h3q10 0 17.5 -6.5t8.5 -15.5v-2v-3v-1q-7 -71 -57 -120t-121 -49h-16q-35 3 -65 18h-3q-5 0 -13 -2l-1 -1v-1h1q8 3 13 3h3
q30 -15 65 -18h16q72 0 122 49q51 50 57 122v0q1 2 1 3zM908 310q-1 10 -9.5 16.5t-19.5 6.5l-10 -8q-3 -1 -4 -2q-8 -8 -8 -18.5t8 -17.5t19 -7t19 7q1 0 2 1l1 1l2 16v5zM577 413q-5 17 -22 33q-13 12 -6 27q9 20 13.5 34.5t5.5 19.5v5l69 63q15 -1 63 18q17 6 30 -6
q26 -24 64 -24q71 0 122 -46q58 -54 48 -129q-9 -67 -64 -118q-8 -7 -19.5 -7t-19.5 7t-8 17.5t8 18.5l4 2q10 6 18 14q37 34 37 82.5t-37 82.5q-25 23 -57.5 30t-70 -5.5t-71.5 -43.5q-45 -41 -54 -73q-1 -7 -7 -12q-8 -8 -19.5 -8t-19.5 8q-5 4 -7 10zM700 613
q-46 -17 -63 -17v-1l-69 -63h-1v-1q0 -15 -19 -57q-2 -5 -2 -10q0 -11 8 -18q18 -16 23 -33q2 -6 7 -11q8 -7 20 -7v1q-11 0 -19 7q-5 5 -7 11q-5 16 -23 33q-8 7 -8 17q0 5 2 9q20 43 20 58l68 63q17 1 63 18q5 2 10 2v1q-5 0 -10 -2zM684 489q-46 -42 -54 -74
q-2 -7 -7 -12q-8 -7 -19 -7v-1q11 0 19 7q6 6 8 13q8 31 53 73q55 50 116 50v1q-61 0 -116 -50zM916 537q-50 47 -122 47q-38 0 -64 24q-8 7 -20 7v-1q11 0 19 -7q27 -24 65 -24q71 0 121 -47q50 -45 50 -108q0 -10 -2 -20q-8 -67 -63 -118q-8 -7 -19 -7v-1q11 0 19 8
q56 51 65 118q1 10 1 20q0 63 -50 109zM866 328q9 6 18 14q37 34 37 83q0 48 -37 82q-35 32 -84 32v-1q48 0 83 -31q37 -34 37 -82t-37 -82q-9 -8 -18 -14q-2 -1 -4 -3q-8 -8 -8 -18.5t8 -18t20 -7.5v1q-11 0 -19 7.5t-8 17.5t8 17q2 2 4 3zM656.5 540q-2.5 2 -4.5 0l-5 -5
q-7 3 -12 -2q-7 -6 0 -13t14 0q6 5 2 11l6 5q2 2 -0.5 4zM638.5 523.5q3.5 -3.5 7.5 0t0 7t-7.5 0t0 -7zM652 540l-5 -5h-1q-2 1 -4 1q-4 0 -6.5 -3t-2.5 -6.5t2.5 -6t6.5 -2.5t7 2.5t3 6.5q0 2 -1 4l5 5q1 1 1 2t-1 1.5t-2 0.5h-2zM633 526.5q0 3.5 2.5 6.5t6.5 3q2 0 4 -1
h1l5 5h2h2h1q-1 1 -2.5 1t-3.5 -1l-4 -4q-3 1 -5 1q-4 0 -7.5 -3t-3.5 -7t4 -7v1q-2 2 -2 5.5zM658 537.5q0 1.5 -1 2.5h-1q1 -1 1 -2t-1 -2l-5 -5q1 -2 1 -4q0 -4 -3 -6.5t-7 -2.5t-7 3v-1q3 -3 7.5 -3t7.5 3t3 7q0 2 -1 4l5 4q1 1 1 2.5zM607.5 462q4.5 -4 8.5 0t0 7.5
t-8.5 0t0 -7.5zM607 462.5q4 -3.5 8 0t0 7.5t-8 0t0 -7.5zM407 315q20 26 27 57q1 4 12 10q2 1 2 3l-2 7l-9 6l4 10l-9 6l3 10l-10 4l2 10l-9 4l2 9l-9 3l1 9l-9 2v9l-8 2v8l-8 2l-1 7l-7 1l-1 8l-8 1l-1 6l-7 1l-1 6l-7 1l-1 6h-7l-1 5h-6l-2 5h-6l-2 5q-19 10 -25 0
q-5 -8 12 -19q39 -25 58.5 -57.5t17.5 -64t-23 -58.5q-30 -39 -81.5 -47.5t-94.5 19.5q-11 7 -19 15l-4 2q-18 12 -34 -2q-8 -8 -8 -18.5t8 -17.5q2 -2 4 -3q64 -42 138 -38q82 4 129 66zM317 520q-13 8 -13 15q0 1 1 3l-1 1q-1 -2 -1 -4q0 -7 13 -16q75 -48 75 -116
q0 -34 -22 -63q-38 -50 -103 -50q-40 0 -72 21q-12 7 -19 15q-2 2 -4 3q-7 4 -16 4q-12 0 -20 -7l1 -1q8 7 19 7q8 0 15 -4q2 -1 4 -3q8 -7 19 -15q33 -21 73 -21q66 0 104 50q22 29 22 64q0 68 -75 117zM448 385q0 1 -1 6v1l-9 6l4 10l-1 1l-8 5l2 9v1l-9 4l2 10l-9 4l1 9
l-9 3l1 9l-8 3v8h-1l-8 2v8l-8 2v7l-1 1l-7 1l-1 7l-7 1l-1 6q0 1 -1 1h-6l-1 6q0 1 -1 1h-6l-2 6h-6l-2 5v1l-6 -1l-2 5v1l-6 -1l-2 5q-9 5 -16 5t-9 -4l1 -1q2 4 8 4t15 -5l2 -5h1h5l2 -4q0 -1 1 -1l5 1l2 -6h6l2 -6h7l1 -6v-1h7l1 -6v-1l7 -1l1 -7l8 -1v-7q0 -1 1 -1
l7 -2v-7q0 -1 1 -1l8 -2l-1 -8h1l8 -3l-1 -8l1 -1l8 -3l-1 -8v-1l9 -4l-2 -9l9 -5l-3 -9q0 -1 1 -1l8 -5l-3 -10l9 -7q1 -5 1 -6q0 -2 -1 -3q-12 -6 -13 -10q-7 -30 -27 -56q-47 -62 -128 -66q-6 -1 -11 -1q-68 0 -126 38h-1q-2 2 -4 3q-8 8 -8 18t8 17l-1 1q-8 -8 -8 -18.5
t8 -17.5q2 -2 5 -4q58 -38 127 -38q5 0 11 1q82 4 129 66q20 26 27 57q1 4 12 9q2 2 2 4zM441 408l-9 6l3 10l-10 4l2 10l-9 4l2 9l-9 3l1 9l-9 2v9l-8 2v8l-8 2l-1 7l-7 1l-1 8l-8 1l-1 6l-7 1l-1 6l-7 1l-1 6h-7l-1 5h-6l-2 5h-6l-2 5q-19 10 -25 0q-5 -8 12 -19
q31 -19 50 -44q35 -36 43 -63q1 -7 7 -12q12 -11 28 -6l-7 4zM178 287q8 7 8 17.5t-8 18.5l-4 2l-8 6q-17 7 -30 -5q-8 -7 -8.5 -17t6.5 -17l3 -3q1 -1 3 -2q4 -3 9 -6q17 -5 29 6zM458 413q5 17 23 33q13 12 6 27q-9 20 -14 34.5t-5 19.5v5l-69 63q-15 -1 -63 18
q-17 6 -30 -6q-26 -24 -64 -24q-72 0 -122 -46q-58 -54 -48 -129q8 -67 64 -118q8 -7 19 -7t19 7t8 17.5t-8 18.5l-4 2q-9 6 -18 14q-37 34 -37 82.5t37 82.5q25 23 58 30t70.5 -5.5t71.5 -43.5q45 -42 53 -73q2 -7 8 -12q8 -8 19 -8t19 8q5 4 7 10zM429.5 462
q-4.5 -4 -8.5 0t0 7.5t8.5 0t0 -7.5zM136 290q-55 51 -64 118q-1 10 -1 20q0 63 49 108q51 47 122 47q38 0 64 24q8 7 19 7q6 0 10 -2q47 -17 63 -18l69 -63l1 1l-69 63v1q-17 0 -63 17q-5 2 -11 2q-11 0 -19 -7q-26 -24 -64 -24q-72 0 -122 -47q-50 -46 -50 -109
q0 -10 1 -20q9 -67 64 -118q8 -8 20 -8v1q-11 0 -19 7zM401 533q-5 5 -12 2l-5 5q-3 2 -5 0t0 -4l5 -5q-3 -6 2 -11q7 -7 14.5 0t0.5 13zM384 527q0 2 1 4l-5 5q-1 1 -1 2t0.5 1.5t2.5 0.5h1l6 -5q2 1 5 1q4 0 6 -3l1 1q-3 3 -7 3q-3 0 -5 -1l-5 4q-1 1 -2.5 1t-2.5 -1
t-1 -2.5t1 -2.5l5 -4q-1 -2 -1 -4q0 -4 3 -7l1 1q-3 2 -3 6zM401 534l-1 -1q3 -3 3 -6.5t-3 -6t-7 -2.5t-6 3l-1 -1q3 -3 7.5 -3t7.5 3t3 7t-3 7zM397.5 523.5q-3.5 -3.5 -7.5 0t-0.5 7t7.5 0t0.5 -7zM429 462.5q-4 -3.5 -8.5 0t0 7.5t8.5 0t0 -7.5zM487 474q-19 42 -19 57
v1l-1 -1q0 -15 19 -58q2 -4 2 -9q0 -10 -8 -17q-17 -17 -22 -33q-2 -6 -7 -11q-8 -7 -19 -7t-19 7q-5 5 -7 12q-9 32 -54 74q-55 50 -117 50q-48 0 -83 -32q-37 -34 -37 -82q0 -49 37 -83q8 -8 18 -14q2 -1 4 -3q8 -7 8 -17t-8 -17.5t-19 -7.5v-1q11 0 19.5 7.5t8.5 18
t-8 18.5q-2 2 -4 3q-10 6 -18 14q-37 34 -37 82t37 82q34 31 82 31q61 0 116 -50q45 -42 54 -73q2 -7 7 -13q8 -7 20 -7t20 7q5 5 7 11q5 17 22 33q8 7 8 18q0 5 -2 10z" />
    <glyph glyph-name="uniE623" unicode="&#xe623;" 
d="M716 325l-62 65v58l10 -14l7 -7l14 -10l106 106v0q31 36 31 79q0 48 -31 79v3v0q-31 31 -79 31q-37 0 -58 -17v48q26 10 58 10q67 0 106 -44v0v0q45 -45 45 -110q0 -62 -45 -106v0l-106 -106l48 -52q5 -5 5 -13.5t-5 -13.5l-89 -89q-7 -7 -17 -7v51l3 -3zM654 390l-4 3
l-44 -44v54l17 18l-17 17v54l48 -44v-58zM606 314l48 -48v-51q-3 0 -6.5 2.5t-3.5 4.5l-38 38v54zM654 746v-48q-4 -2 -10.5 -7t-10.5 -7v0l-27 -27v58q14 10 48 31zM606 157v44l7 -6q7 -6 7 -14.5t-7 -13.5zM606 349l-17 -18l17 -17v-54l-58 54v59l13 -14l45 44v-54z
M606 715v-58l-58 -58v58l54 55v0zM606 492v-54l-58 58v55zM606 201l-58 59v-55l24 -24l-24 -24v-58l58 58v44zM548 657v-58l-24 -24l20 -17l4 -7v-55l-21 17l-44 -45v59l17 17l-17 14v58l13 -11zM548 373v-59l-65 65v59zM548 260l-65 65v-59l65 -61v55zM548 157v-58l-11 -11
q-5 -5 -13.5 -5t-13.5 5l-27 24v59l41 -38zM483 616v-58l-48 47v52q10 0 13 -4zM483 527v-59l-14 -13l14 -17v-59l-48 48v59l3 -4zM483 325v-59l-48 48v59zM483 171v-59l-48 48v58zM435 657v-52v4l-62 -62l62 -61v-59l-72 72v96l55 58q13 7 17 4zM435 373l-72 72v-55l72 -76
v59zM435 218v-58v4l-72 -72v58l41 38l-41 41v61zM363 595v-96l-31 35h-4q-5 5 -5 13.5t5 13.5zM363 445v-55l-41 41v58zM363 290v-61l-41 41v65zM363 150v-58l-41 -41v54zM322 489v-58l-35 34l-48 -51l83 -79v-65l-24 24l-100 -96l107 -110l17 17v-54l-4 -4q-5 -5 -13.5 -5
t-13.5 5l-134 134h-3q-10 15 0 31l116 116l-72 72h-3q-10 15 0 31l79 75q5 5 13.5 5t13.5 -5z" />
    <glyph glyph-name="uniE624" unicode="&#xe624;" 
d="M294 896l-6 -230l-6 -20q-4 -2 -9.5 -6t-20 -16.5t-26.5 -26.5t-22 -35.5t-12 -43.5q0 -55 12.5 -89.5t45.5 -57.5q21 -15 47 -18t46.5 2.5t34.5 15.5l121 96h19l141 -102q2 -2 5.5 -4t15.5 -6t25 -4.5t33.5 6t42.5 21.5q24 14 39 61.5t6 85.5q-9 31 -30 61.5t-37 45.5
l-17 14l-12 13v237h-45v-230l-7 -20q-109 -83 -160 -128h-19l-153 128l-7 20v230h-45zM192 288v-58h640v58h-640zM480 -128q-1 6 -2 15.5t-7 37t-14.5 51.5t-24 51t-35.5 43q-31 26 -82.5 42t-86.5 19l-36 3v58h640v-51q-6 0 -17 -0.5t-41 -5.5t-56 -13.5t-56 -27t-48 -43.5
q-44 -57 -57 -95.5t-13 -83.5h-64z" />
  </font>
</defs>
</svg>
